# Blender v2.71 (sub 0) OBJ File: '3dsquare.blend'
# www.blender.org
mtllib 3dsquare.mtl
o Cube
v 3.750000 0.000000 -3.750000
v 3.750000 0.000000 1.250000
v -1.250000 0.000000 1.250000
v -1.249999 0.000000 -3.750001
v 3.750001 2.500000 -3.749999
v 3.749998 2.500000 1.250001
v -1.250001 2.500000 1.249999
v -1.250000 2.500000 -3.750000
vn 0.000000 -1.000000 0.000000
vn 0.000000 1.000000 -0.000000
vn 1.000000 0.000000 0.000000
vn -0.000000 -0.000000 1.000000
vn -1.000000 -0.000000 -0.000000
vn 0.000000 0.000000 -1.000000
usemtl Material
s off
f 1//1 2//1 3//1 4//1
f 5//2 8//2 7//2 6//2
f 1//3 5//3 6//3 2//3
f 2//4 6//4 7//4 3//4
f 3//5 7//5 8//5 4//5
f 5//6 1//6 4//6 8//6
