# Blender v2.71 (sub 0) OBJ File: 'ishape.blend'
# www.blender.org
mtllib ishape.mtl
o Cube
v 1.200000 0.050000 -6.000000
v 1.200000 0.050000 1.200000
v -1.200000 0.050000 1.199999
v -1.200000 0.050000 -6.000001
v 1.200001 2.450000 -5.999998
v 1.199999 2.450000 1.200002
v -1.200001 2.450000 1.199999
v -1.200000 2.450000 -6.000000
vn 0.000000 -1.000000 0.000000
vn 0.000000 1.000000 0.000000
vn 1.000000 0.000000 0.000000
vn -0.000000 -0.000000 1.000000
vn -1.000000 -0.000000 -0.000000
vn 0.000000 0.000000 -1.000000
usemtl Material
s off
f 1//1 2//1 3//1 4//1
f 5//2 8//2 7//2 6//2
f 1//3 5//3 6//3 2//3
f 2//4 6//4 7//4 3//4
f 3//5 7//5 8//5 4//5
f 5//6 1//6 4//6 8//6
