# Blender v2.71 (sub 0) OBJ File: 'tshape.blend'
# www.blender.org
mtllib tshape.mtl
o Cube_Cube.001
v -0.426151 -0.357137 1.394270
v -0.426151 -0.357137 -3.379085
v 4.347204 -0.357137 -3.379085
v 4.347204 -0.357137 1.394270
v -0.426151 4.416219 1.394270
v -0.426151 4.416219 -3.379085
v 4.347204 4.416219 -3.379085
v 4.347204 4.416219 1.394270
v -0.426151 -0.357137 6.167626
v 4.347204 -0.357137 6.167626
v -0.426151 4.416219 6.167626
v 4.347204 4.416219 6.167626
v -0.426151 -0.357137 -8.152441
v 4.347204 -0.357137 -8.152441
v -0.426151 4.416219 -8.152441
v 4.347204 4.416219 -8.152441
v -0.426151 9.189574 1.394270
v -0.426151 9.189574 -3.379085
v 4.347204 9.189574 -3.379085
v 4.347204 9.189574 1.394270
v 9.120560 -0.357137 -3.379085
v 9.120560 -0.357137 1.394270
v 9.120560 4.416219 -3.379085
v 9.120560 4.416219 1.394270
vn -1.000000 0.000000 0.000000
vn 0.000000 -1.000000 0.000000
vn 0.000000 0.000000 1.000000
vn 0.000000 1.000000 0.000000
vn 1.000000 0.000000 0.000000
vn 0.000000 0.000000 -1.000000
usemtl None
s off
f 5//1 6//1 2//1 1//1
f 3//2 2//2 13//2 14//2
f 4//2 3//2 21//2 22//2
f 1//2 4//2 10//2 9//2
f 1//2 2//2 3//2 4//2
f 5//3 8//3 20//3 17//3
f 12//3 11//3 9//3 10//3
f 8//4 5//4 11//4 12//4
f 4//5 8//5 12//5 10//5
f 5//1 1//1 9//1 11//1
f 15//6 16//6 14//6 13//6
f 7//5 3//5 14//5 16//5
f 6//4 7//4 16//4 15//4
f 2//1 6//1 15//1 13//1
f 20//4 19//4 18//4 17//4
f 8//5 7//5 19//5 20//5
f 7//6 6//6 18//6 19//6
f 6//1 5//1 17//1 18//1
f 23//5 24//5 22//5 21//5
f 8//3 4//3 22//3 24//3
f 7//4 8//4 24//4 23//4
f 3//6 7//6 23//6 21//6
